{
	"asset":{
		"generator":"Khronos glTF Blender I/O v3.6.27",
		"version":"2.0"
	},
	"scene":0,
	"scenes":[
		{
			"name":"Scene",
			"nodes":[
				4
			]
		}
	],
	"nodes":[
		{
			"name":"Bone.001",
			"rotation":[
				0.8758829832077026,
				-0.05119066312909126,
				-0.28906333446502686,
				0.3829503059387207
			],
			"scale":[
				1,
				0.9999999403953552,
				1.0000001192092896
			],
			"translation":[
				-1.3869794202037156e-09,
				0.987248420715332,
				4.77322714687034e-09
			]
		},
		{
			"name":"Bone.002",
			"rotation":[
				-0.9023656249046326,
				-0.002165287733078003,
				-0.1434367150068283,
				0.4063957929611206
			],
			"scale":[
				0.9999998807907104,
				1,
				1.000000238418579
			],
			"translation":[
				-1.3869794202037156e-09,
				0.987248420715332,
				4.77322714687034e-09
			]
		},
		{
			"children":[
				0,
				1
			],
			"name":"Bone",
			"rotation":[
				-0.006277744192630053,
				1.9531361417080007e-08,
				-0.0017852747114375234,
				0.9999786615371704
			],
			"scale":[
				0.9999998807907104,
				0.9999999403953552,
				1
			],
			"translation":[
				0,
				-1.9615981727838516e-08,
				2.3283064365386963e-09
			]
		},
		{
			"mesh":0,
			"name":"Cube",
			"skin":0
		},
		{
			"children":[
				3,
				2
			],
			"name":"Armature",
			"rotation":[
				-0.01705082505941391,
				0,
				0,
				0.9998546242713928
			],
			"scale":[
				3.4967665672302246,
				3.2724931240081787,
				3.4967665672302246
			],
			"translation":[
				0.034611281007528305,
				-1.6119074821472168,
				0.061950985342264175
			]
		}
	],
	"animations":[
		{
			"channels":[
				{
					"sampler":0,
					"target":{
						"node":2,
						"path":"translation"
					}
				},
				{
					"sampler":1,
					"target":{
						"node":2,
						"path":"rotation"
					}
				},
				{
					"sampler":2,
					"target":{
						"node":2,
						"path":"scale"
					}
				},
				{
					"sampler":3,
					"target":{
						"node":0,
						"path":"translation"
					}
				},
				{
					"sampler":4,
					"target":{
						"node":0,
						"path":"rotation"
					}
				},
				{
					"sampler":5,
					"target":{
						"node":0,
						"path":"scale"
					}
				},
				{
					"sampler":6,
					"target":{
						"node":1,
						"path":"translation"
					}
				},
				{
					"sampler":7,
					"target":{
						"node":1,
						"path":"rotation"
					}
				},
				{
					"sampler":8,
					"target":{
						"node":1,
						"path":"scale"
					}
				}
			],
			"name":"ArmatureAction",
			"samplers":[
				{
					"input":7,
					"interpolation":"STEP",
					"output":8
				},
				{
					"input":7,
					"interpolation":"STEP",
					"output":9
				},
				{
					"input":7,
					"interpolation":"STEP",
					"output":10
				},
				{
					"input":7,
					"interpolation":"STEP",
					"output":11
				},
				{
					"input":12,
					"interpolation":"LINEAR",
					"output":13
				},
				{
					"input":7,
					"interpolation":"STEP",
					"output":14
				},
				{
					"input":7,
					"interpolation":"STEP",
					"output":15
				},
				{
					"input":12,
					"interpolation":"LINEAR",
					"output":16
				},
				{
					"input":7,
					"interpolation":"STEP",
					"output":17
				}
			]
		}
	],
	"meshes":[
		{
			"name":"Cube.001",
			"primitives":[
				{
					"attributes":{
						"POSITION":0,
						"NORMAL":1,
						"TEXCOORD_0":2,
						"JOINTS_0":3,
						"WEIGHTS_0":4
					},
					"indices":5
				}
			]
		}
	],
	"skins":[
		{
			"inverseBindMatrices":6,
			"joints":[
				2,
				0,
				1
			],
			"name":"Armature"
		}
	],
	"accessors":[
		{
			"bufferView":0,
			"componentType":5126,
			"count":24,
			"max":[
				1.0346112251281738,
				2.574521780014038,
				1.0799113512039185
			],
			"min":[
				-0.9653887152671814,
				-2.1894888877868652,
				-1.07913076877594
			],
			"type":"VEC3"
		},
		{
			"bufferView":1,
			"componentType":5126,
			"count":24,
			"type":"VEC3"
		},
		{
			"bufferView":2,
			"componentType":5126,
			"count":24,
			"type":"VEC2"
		},
		{
			"bufferView":3,
			"componentType":5121,
			"count":24,
			"type":"VEC4"
		},
		{
			"bufferView":4,
			"componentType":5126,
			"count":24,
			"type":"VEC4"
		},
		{
			"bufferView":5,
			"componentType":5123,
			"count":36,
			"type":"SCALAR"
		},
		{
			"bufferView":6,
			"componentType":5126,
			"count":3,
			"type":"MAT4"
		},
		{
			"bufferView":7,
			"componentType":5126,
			"count":2,
			"max":[
				4.583333333333333
			],
			"min":[
				0
			],
			"type":"SCALAR"
		},
		{
			"bufferView":8,
			"componentType":5126,
			"count":2,
			"type":"VEC3"
		},
		{
			"bufferView":9,
			"componentType":5126,
			"count":2,
			"type":"VEC4"
		},
		{
			"bufferView":10,
			"componentType":5126,
			"count":2,
			"type":"VEC3"
		},
		{
			"bufferView":11,
			"componentType":5126,
			"count":2,
			"type":"VEC3"
		},
		{
			"bufferView":12,
			"componentType":5126,
			"count":111,
			"max":[
				4.583333333333333
			],
			"min":[
				0
			],
			"type":"SCALAR"
		},
		{
			"bufferView":13,
			"componentType":5126,
			"count":111,
			"type":"VEC4"
		},
		{
			"bufferView":14,
			"componentType":5126,
			"count":2,
			"type":"VEC3"
		},
		{
			"bufferView":15,
			"componentType":5126,
			"count":2,
			"type":"VEC3"
		},
		{
			"bufferView":16,
			"componentType":5126,
			"count":111,
			"type":"VEC4"
		},
		{
			"bufferView":17,
			"componentType":5126,
			"count":2,
			"type":"VEC3"
		}
	],
	"bufferViews":[
		{
			"buffer":0,
			"byteLength":288,
			"byteOffset":0,
			"target":34962
		},
		{
			"buffer":0,
			"byteLength":288,
			"byteOffset":288,
			"target":34962
		},
		{
			"buffer":0,
			"byteLength":192,
			"byteOffset":576,
			"target":34962
		},
		{
			"buffer":0,
			"byteLength":96,
			"byteOffset":768,
			"target":34962
		},
		{
			"buffer":0,
			"byteLength":384,
			"byteOffset":864,
			"target":34962
		},
		{
			"buffer":0,
			"byteLength":72,
			"byteOffset":1248,
			"target":34963
		},
		{
			"buffer":0,
			"byteLength":192,
			"byteOffset":1320
		},
		{
			"buffer":0,
			"byteLength":8,
			"byteOffset":1512
		},
		{
			"buffer":0,
			"byteLength":24,
			"byteOffset":1520
		},
		{
			"buffer":0,
			"byteLength":32,
			"byteOffset":1544
		},
		{
			"buffer":0,
			"byteLength":24,
			"byteOffset":1576
		},
		{
			"buffer":0,
			"byteLength":24,
			"byteOffset":1600
		},
		{
			"buffer":0,
			"byteLength":444,
			"byteOffset":1624
		},
		{
			"buffer":0,
			"byteLength":1776,
			"byteOffset":2068
		},
		{
			"buffer":0,
			"byteLength":24,
			"byteOffset":3844
		},
		{
			"buffer":0,
			"byteLength":24,
			"byteOffset":3868
		},
		{
			"buffer":0,
			"byteLength":1776,
			"byteOffset":3892
		},
		{
			"buffer":0,
			"byteLength":24,
			"byteOffset":5668
		}
	],
	"buffers":[
		{
			"byteLength":5692,
			"uri":"flexing_cube.bin"
		}
	]
}
